<mxfile host="app.diagrams.net" agent="Mozilla/5.0 (Windows NT 10.0; Win64; x64) AppleWebKit/537.36 (KHTML, like Gecko) Chrome/128.0.0.0 Safari/537.36" version="24.7.14">
  <diagram name="Page-1" id="2ikC2w35KWOmmKQZd92I">
    <mxGraphModel dx="1050" dy="569" grid="1" gridSize="10" guides="1" tooltips="1" connect="1" arrows="1" fold="1" page="1" pageScale="1" pageWidth="850" pageHeight="1100" math="0" shadow="0">
      <root>
        <mxCell id="0" />
        <mxCell id="1" parent="0" />
        <mxCell id="PDGRSkXh_1oZ5cUsPY0N-1" style="edgeStyle=orthogonalEdgeStyle;rounded=0;orthogonalLoop=1;jettySize=auto;html=1;entryX=0;entryY=0.5;entryDx=0;entryDy=0;" edge="1" parent="1" source="PDGRSkXh_1oZ5cUsPY0N-2" target="PDGRSkXh_1oZ5cUsPY0N-11">
          <mxGeometry relative="1" as="geometry" />
        </mxCell>
        <mxCell id="PDGRSkXh_1oZ5cUsPY0N-2" value="" style="rounded=0;whiteSpace=wrap;html=1;fillColor=#dae8fc;strokeColor=#6c8ebf;" vertex="1" parent="1">
          <mxGeometry x="110" y="110" width="100" height="100" as="geometry" />
        </mxCell>
        <mxCell id="PDGRSkXh_1oZ5cUsPY0N-3" style="edgeStyle=orthogonalEdgeStyle;rounded=0;orthogonalLoop=1;jettySize=auto;html=1;entryX=0;entryY=0.5;entryDx=0;entryDy=0;" edge="1" parent="1" source="PDGRSkXh_1oZ5cUsPY0N-4" target="PDGRSkXh_1oZ5cUsPY0N-10">
          <mxGeometry relative="1" as="geometry">
            <Array as="points">
              <mxPoint x="220" y="95" />
              <mxPoint x="220" y="110" />
            </Array>
          </mxGeometry>
        </mxCell>
        <mxCell id="PDGRSkXh_1oZ5cUsPY0N-4" value="Ground Truth" style="rounded=0;whiteSpace=wrap;html=1;fillColor=#dae8fc;strokeColor=#6c8ebf;" vertex="1" parent="1">
          <mxGeometry x="110" y="80" width="100" height="20" as="geometry" />
        </mxCell>
        <mxCell id="PDGRSkXh_1oZ5cUsPY0N-5" value="&lt;font style=&quot;font-size: 10px;&quot;&gt;Variation 1&lt;/font&gt;" style="rounded=0;whiteSpace=wrap;html=1;fillColor=#fff2cc;strokeColor=#d6b656;" vertex="1" parent="1">
          <mxGeometry x="120" y="120" width="80" height="10" as="geometry" />
        </mxCell>
        <mxCell id="PDGRSkXh_1oZ5cUsPY0N-6" value="&lt;font style=&quot;font-size: 10px;&quot;&gt;Variation 2&lt;/font&gt;" style="rounded=0;whiteSpace=wrap;html=1;fillColor=#fff2cc;strokeColor=#d6b656;" vertex="1" parent="1">
          <mxGeometry x="120" y="140" width="80" height="10" as="geometry" />
        </mxCell>
        <mxCell id="PDGRSkXh_1oZ5cUsPY0N-7" value="&lt;font style=&quot;font-size: 10px;&quot;&gt;Variation 9&lt;/font&gt;" style="rounded=0;whiteSpace=wrap;html=1;fillColor=#fff2cc;strokeColor=#d6b656;" vertex="1" parent="1">
          <mxGeometry x="120" y="190" width="80" height="10" as="geometry" />
        </mxCell>
        <mxCell id="PDGRSkXh_1oZ5cUsPY0N-8" value="" style="endArrow=none;dashed=1;html=1;dashPattern=1 3;strokeWidth=2;rounded=0;" edge="1" parent="1">
          <mxGeometry width="50" height="50" relative="1" as="geometry">
            <mxPoint x="160" y="180" as="sourcePoint" />
            <mxPoint x="160" y="160" as="targetPoint" />
          </mxGeometry>
        </mxCell>
        <mxCell id="PDGRSkXh_1oZ5cUsPY0N-9" style="edgeStyle=orthogonalEdgeStyle;rounded=0;orthogonalLoop=1;jettySize=auto;html=1;exitX=0.5;exitY=1;exitDx=0;exitDy=0;entryX=0.5;entryY=0;entryDx=0;entryDy=0;" edge="1" parent="1" source="PDGRSkXh_1oZ5cUsPY0N-10" target="PDGRSkXh_1oZ5cUsPY0N-11">
          <mxGeometry relative="1" as="geometry">
            <Array as="points">
              <mxPoint x="320" y="150" />
              <mxPoint x="350" y="150" />
            </Array>
          </mxGeometry>
        </mxCell>
        <mxCell id="PDGRSkXh_1oZ5cUsPY0N-10" value="Synthetically created training dataset" style="rounded=0;whiteSpace=wrap;html=1;fillColor=#d5e8d4;strokeColor=#82b366;" vertex="1" parent="1">
          <mxGeometry x="240" y="80" width="160" height="60" as="geometry" />
        </mxCell>
        <mxCell id="PDGRSkXh_1oZ5cUsPY0N-11" value="RNN" style="rounded=0;whiteSpace=wrap;html=1;fillColor=#f8cecc;strokeColor=#b85450;" vertex="1" parent="1">
          <mxGeometry x="300" y="170" width="100" height="40" as="geometry" />
        </mxCell>
      </root>
    </mxGraphModel>
  </diagram>
</mxfile>
